<?xml version="1.0" encoding="UTF-8"?>
<svg width="156px" height="32px" viewBox="0 0 156 32" version="1.1" xmlns="http://www.w3.org/2000/svg" xmlns:xlink="http://www.w3.org/1999/xlink">
    <!-- Generator: Sketch 54.1 (76490) - https://sketchapp.com -->
    <title>brand42-white</title>
    <desc>Created with Sketch.</desc>
    <g id="Symbols" stroke="none" stroke-width="1" fill="none" fill-rule="evenodd">
        <g id="logos/brand42-logo/white" fill="#FFFFFF">
            <g id="brand42-white">
                <path d="M12.9214344,25.663935 L7.46144691,25.663935 L7.46144691,18.0698636 L14.2508954,18.0698636 C15.8511367,18.1161729 18.9609305,18.1599094 18.9609305,21.934112 C18.9609305,25.5301528 15.5404789,25.6201985 12.9214344,25.663935 L12.9214344,25.663935 Z M7.46144691,5.85966191 L13.8965011,5.85966191 C15.4073399,5.85966191 18.0276708,5.99473051 18.0276708,9.01383538 C18.0276708,12.2541955 15.141705,12.3429549 13.3652312,12.3886209 L7.46144691,12.3886209 L7.46144691,5.85966191 Z M19.0020943,15.2289207 C20.6917382,14.8738832 23.7101999,14.253854 25.1316361,11.0572304 C25.2634888,10.7433567 25.7105015,9.72519669 25.7105015,8.03812552 C25.7105015,5.06211397 24.1559262,1.99862942 20.2929642,0.754711899 C18.3827082,0.134039509 15.4073399,0.00025727353 12.1200273,0.00025727353 L-0.000128636765,0.00025727353 L-0.000128636765,31.3503232 L13.231449,31.3503232 C16.8287761,31.3503232 19.361634,31.2146114 21.7111845,30.1951651 C25.6191694,28.4643574 26.9081098,25.0426195 26.9081098,22.5991641 C26.9081098,20.8226904 26.2861511,19.0912395 25.1785885,17.8942744 C23.4432786,15.9409252 20.9129934,15.541508 19.0020943,15.2289207 L19.0020943,15.2289207 Z" id="Fill-1"></path>
                <path d="M34.8682172,8.12772103 L28.2086918,8.12772103 L28.2086918,31.349873 L35.0431632,31.349873 L35.0431632,18.2958141 C35.0431632,15.3628959 36.0214458,14.873433 39.3087583,14.2977835 L41.5721222,13.9440324 L41.5721222,7.90260669 C38.0243202,8.25828735 36.3784128,9.28030644 34.8682172,10.5653877 L34.8682172,8.12772103 Z" id="Fill-4"></path>
                <path d="M53.5296813,26.1959124 C52.8196063,26.6416388 52.0194856,26.9516534 51.1788444,26.9516534 C49.578603,26.9516534 48.6016068,25.7096654 48.6016068,24.5988869 C48.6016068,22.8236996 50.3774373,22.1560748 51.5332387,21.7135643 L55.9281137,20.246462 C55.8837341,22.6474672 55.7962611,24.7764057 53.5296813,26.1959124 L53.5296813,26.1959124 Z M62.6333051,14.2095386 C62.6333051,8.21442221 55.7525246,7.55001332 52.9090089,7.55001332 C50.2024913,7.55001332 47.4496646,7.90312124 45.3175102,9.59212196 C43.2303787,11.2328839 43.0065507,13.1444262 42.874698,14.7395221 L49.7123853,14.7395221 C49.8924767,13.8975945 50.2880348,12.0342909 53.3103556,12.0342909 C55.7525246,12.0342909 55.8406407,13.8094783 55.9281137,14.8733043 L55.9281137,16.1165787 C53.0427911,16.6504212 48.6459865,17.4498987 46.7820398,18.2513058 C44.8717838,19.0475674 41.8977018,21.1803649 41.8977018,24.9101879 C41.8977018,28.1531208 44.1629952,31.9717031 49.4898437,31.9717031 C52.9090089,31.9717031 54.8610718,30.5046008 56.593809,29.2169468 L56.593809,31.3503875 L63.2996436,31.3503875 C62.765801,30.5509101 62.6333051,30.1952294 62.6333051,27.7073944 L62.6333051,14.2095386 Z" id="Fill-6"></path>
                <path d="M82.1390766,8.52848887 C80.9414683,7.85957769 79.3875362,7.59329959 78.0079069,7.59329959 C76.3665018,7.59329959 74.8575926,7.9946463 73.791837,8.43844314 C72.5942287,9.01409266 72.1497887,9.54600568 71.4834502,10.257367 L71.4834502,8.21461516 L64.6020265,8.21461516 L64.6020265,31.3499373 L71.4390705,31.3499373 L71.4390705,18.8258619 C71.4390705,15.9405393 71.4390705,13.0520007 75.0351113,13.0520007 C76.3665018,13.0520007 77.5653965,13.5877728 78.0998822,14.8316903 C78.3648739,15.4510764 78.4092536,16.2081037 78.4092536,18.2958784 L78.4092536,31.3499373 L85.2038475,31.3499373 L85.2038475,15.4954561 C85.2038475,11.9007017 84.5818888,9.81485652 82.1390766,8.52848887" id="Fill-8"></path>
                <path d="M100.004408,26.2417714 C99.3361398,26.6836387 98.539235,26.9518463 97.7834941,26.9518463 C94.3212355,26.9518463 93.4336419,23.0014113 93.4336419,19.7610512 C93.4336419,18.7377457 93.4336419,12.6545131 98.2736001,12.6545131 C99.6474408,12.6545131 100.62701,13.630223 100.937668,14.0302833 C102.40284,15.806757 102.40284,18.6940092 102.40284,19.7610512 C102.40284,21.0467756 102.40284,24.5984367 100.004408,26.2417714 L100.004408,26.2417714 Z M102.269058,9.90168634 C101.02707,8.96971297 99.2062167,7.54956309 96.1433753,7.54956309 C91.4796494,7.54956309 86.5052657,11.1449607 86.5052657,19.8929039 C86.5052657,21.4024563 86.5052657,26.0642527 89.8813376,29.3071855 C91.6996183,31.0823728 94.0999803,31.9718961 96.4057943,31.9718961 C99.8268891,31.9718961 101.601433,30.2391589 102.668475,29.1714737 L102.668475,31.3499373 L108.88549,31.3499373 L108.88549,-0.000128636765 L102.269058,-0.000128636765 L102.269058,9.90168634 Z" id="Fill-10"></path>
                <path d="M143.749719,25.8422899 C144.860498,24.9984327 145.970633,24.2008848 147.036389,23.3107184 C153.293281,18.2038388 155.384915,14.2534038 155.384915,9.90162202 C155.384915,7.76946764 154.761027,3.90714878 150.766855,1.91199255 C148.812863,0.933709957 146.633756,0.712454722 145.171799,0.712454722 C142.81646,0.712454722 137.444588,1.01989659 135.31372,6.66254828 C134.516172,8.74582069 134.559909,10.5229376 134.603645,12.0344196 L141.753277,12.4331935 C141.661945,11.5018634 141.571899,10.8335954 141.571899,10.0804271 C141.571899,8.30459658 141.884486,7.59323527 142.238881,7.1031292 C142.7277,6.48117044 143.615937,5.90359137 144.860498,5.90359137 C147.922053,5.90359137 147.922053,8.83586642 147.922053,10.0360474 C147.922053,14.7878895 145.349318,17.3162451 141.79637,20.4286117 C138.687863,23.0913927 137.090194,24.3327375 134.824901,26.1079248 L134.824901,31.349873 L155.471101,31.349873 L155.471101,25.664128 L143.749719,25.8422899 Z" id="Fill-13"></path>
                <path d="M115.162578,19.4914928 C115.162578,19.4914928 122.046575,8.97157821 122.312853,8.45960388 L122.312853,19.4914928 L115.162578,19.4914928 Z M129.284965,1.28874743 L122.579131,1.28874743 L110.188195,18.946073 L110.188195,24.4208537 L122.26976,24.4208537 L122.26976,31.349873 L129.284965,31.349873 L129.284965,24.4208537 L133.279137,24.4208537 L133.279137,19.4914928 L129.284965,19.4914928 L129.284965,1.28874743 Z" id="Fill-16"></path>
            </g>
        </g>
    </g>
</svg>